<svg width="50" height="50" viewBox="0 0 50 50" fill="none" xmlns="http://www.w3.org/2000/svg">
<circle cx="25" cy="25" r="25" fill="#9FC5C2"/>
<g clip-path="url(#clip0_1324:511)">
<path d="M27.2576 25.5L34.2686 18.4891L35.7144 17.0433C35.9276 16.83 35.9276 16.4834 35.7144 16.2701L34.1674 14.7231C33.9541 14.5099 33.6075 14.5099 33.3942 14.7231L24.9375 23.1799L16.4808 14.7225C16.2675 14.5092 15.9209 14.5092 15.7076 14.7225L14.16 16.2694C13.9467 16.4827 13.9467 16.8293 14.16 17.0426L22.6174 25.5L14.16 33.9567C13.9467 34.17 13.9467 34.5166 14.16 34.7299L15.7069 36.2769C15.9202 36.4901 16.2668 36.4901 16.4801 36.2769L24.9375 27.8201L31.9484 34.8311L33.3942 36.2769C33.6075 36.4901 33.9541 36.4901 34.1674 36.2769L35.7144 34.7299C35.9276 34.5166 35.9276 34.17 35.7144 33.9567L27.2576 25.5Z" fill="white"/>
</g>
<defs>
<clipPath id="clip0_1324:511">
<rect width="21.875" height="35" fill="white" transform="translate(14 8)"/>
</clipPath>
</defs>
</svg>
