<svg width="100" height="38" viewBox="0 0 100 38" fill="none" xmlns="http://www.w3.org/2000/svg">
<g clip-path="url(#clip0)">
<path d="M77.5184 0H36.1403V5.75351H77.5184V0Z" fill="#9FC5C2"/>
<path fill-rule="evenodd" clip-rule="evenodd" d="M25.1411 18.3066H32.9977V31.0938C29.3719 35.1226 24.8792 37.1363 18.463 37.1363C13.0943 37.1363 7.99801 34.6872 4.69693 31.0938C1.39585 27.5005 0 22.7525 0 18.4112C0 14.07 1.58048 9.10363 5.29403 5.49199C9.00758 1.88035 13.2384 0 18.4866 0C23.7348 0 28.2916 1.71952 32.9977 5.49199L27.8464 11.4678C27.2925 10.7368 24.4196 7.32266 18.8558 7.32266C17.469 7.31322 16.0939 7.57688 14.8091 8.09854C13.5244 8.6202 12.3552 9.38965 11.3685 10.3629C9.24066 12.4642 7.91682 14.9735 7.91682 18.4112C7.91682 21.849 9.24197 24.6682 11.214 26.5538C13.186 28.4394 15.996 29.7914 18.2509 29.7914C21.2547 29.7914 23.4284 29.254 25.1411 28.2445V18.3066Z" fill="#244B81"/>
<path d="M43.9969 8.89178H36.1403V37.1363H43.9969V8.89178Z" fill="#244B81"/>
<path fill-rule="evenodd" clip-rule="evenodd" d="M88.5176 14.6453V26.6754C88.5176 26.6754 88.9104 30.3001 92.4459 30.3367C94.1822 30.355 95.3266 29.1991 95.7679 28.595C96.1123 29.1991 99.9987 32.3295 99.9987 32.3295C97.9298 34.9447 94.3262 37.0055 90.6598 37.1363C87.8092 37.2383 85.4758 36.221 83.5378 34.3812C81.5998 32.5413 80.6296 30.0412 80.661 26.6754V0H88.5176V8.89179H95.3266V14.6453H88.5176Z" fill="#244B81"/>
<path fill-rule="evenodd" clip-rule="evenodd" d="M58.6102 37.1363L47.4538 8.89178H56.0437L62.6432 26.6754L69.6618 8.89178H77.8327L66.6763 37.1363H58.6102Z" fill="#244B81"/>
</g>
<defs>
<clipPath id="clip0">
<rect width="100" height="37.1429" fill="white"/>
</clipPath>
</defs>
</svg>
