<svg width="20" height="20" viewBox="0 0 20 20" fill="none" xmlns="http://www.w3.org/2000/svg">
<path d="M12.1216 10.0003L18.5318 3.59011L19.8537 2.2682C20.0487 2.07319 20.0487 1.75631 19.8537 1.5613L18.4393 0.14688C18.2443 -0.0481264 17.9274 -0.0481264 17.7324 0.14688L10.0003 7.879L2.2682 0.146255C2.07319 -0.0487515 1.7563 -0.0487515 1.5613 0.146255L0.146255 1.56067C-0.0487515 1.75568 -0.0487515 2.07256 0.146255 2.26757L7.879 10.0003L0.146255 17.7324C-0.0487515 17.9274 -0.0487515 18.2443 0.146255 18.4393L1.56067 19.8537C1.75568 20.0487 2.07256 20.0487 2.26757 19.8537L10.0003 12.1216L16.4105 18.5318L17.7324 19.8537C17.9274 20.0487 18.2443 20.0487 18.4393 19.8537L19.8537 18.4393C20.0487 18.2443 20.0487 17.9274 19.8537 17.7324L12.1216 10.0003Z" fill="#244B81"/>
</svg>
