<svg width="21" height="18" viewBox="0 0 21 18" fill="none" xmlns="http://www.w3.org/2000/svg">
<g clip-path="url(#clip0)">
<path d="M19.6277 11.7284C18.9352 11.1062 17.891 11.1097 17.1703 11.6863L15.0047 13.4195C14.9379 13.4722 14.857 13.5003 14.7691 13.5003H13.3066C13.4684 13.1628 13.5352 12.7726 13.4754 12.3648C13.3348 11.3839 12.4348 10.6878 11.4434 10.6878H6.37383C5.64258 10.6878 4.93242 10.9234 4.34883 11.3628L2.99883 12.3753H0.28125C0.126562 12.3753 0 12.5019 0 12.6566V13.2191C0 13.3738 0.126562 13.5003 0.28125 13.5003H3.375L5.02383 12.2628C5.41406 11.971 5.88867 11.8128 6.37383 11.8128H11.5312C11.9988 11.8128 12.375 12.189 12.375 12.6566C12.375 13.1242 11.9988 13.5003 11.5312 13.5003H8.4375C8.12813 13.5003 7.875 13.7535 7.875 14.0628C7.875 14.3722 8.12813 14.6253 8.4375 14.6253H14.7727C15.1137 14.6253 15.4441 14.5093 15.7113 14.2984L17.877 12.5687C18.1477 12.3542 18.5801 12.3015 18.8754 12.5687C19.2305 12.8886 19.2023 13.43 18.8438 13.7148L15.3 16.5519C15.0328 16.7663 14.7023 16.8788 14.3613 16.8788H0.28125C0.126562 16.8788 0 17.0054 0 17.1601V17.7226C0 17.8773 0.126562 18.0038 0.28125 18.0038H14.3613C14.959 18.0038 15.5355 17.7999 15.9996 17.4273L19.5469 14.5902C19.9758 14.2456 20.2324 13.7324 20.25 13.1839C20.2676 12.6355 20.0391 12.1011 19.6277 11.7284ZM9.67852 8.80697C9.92461 9.06712 10.3254 9.06712 10.575 8.80697L14.4035 4.79564C15.5145 3.62845 15.4512 1.69837 14.2066 0.622591C12.9656 -0.453191 11.3449 0.0249342 10.5188 0.893294L10.125 1.30111L9.73477 0.893294C8.92617 0.046028 7.29844 -0.463738 6.04688 0.622591C4.80586 1.69837 4.73906 3.63197 5.85 4.79564L9.67852 8.80697ZM6.76406 1.47337C7.49531 0.840559 8.45859 1.16751 8.94023 1.67376L10.125 2.91478L11.3098 1.67376C11.7844 1.17806 12.7512 0.840559 13.4859 1.47337C14.3227 2.19759 14.1961 3.38939 13.6055 4.00814L10.125 7.65736L6.64453 4.00814C6.05742 3.39642 5.93086 2.19759 6.76406 1.47337Z" fill="#244B81"/>
</g>
<defs>
<clipPath id="clip0">
<rect width="20.25" height="18" fill="white"/>
</clipPath>
</defs>
</svg>
