<svg width="18" height="18" viewBox="0 0 18 18" fill="none" xmlns="http://www.w3.org/2000/svg">
<path d="M9 1.125C11.1727 1.125 12.9375 2.88984 12.9375 5.0625C12.9375 7.23516 11.1727 9 9 9C6.82734 9 5.0625 7.23516 5.0625 5.0625C5.0625 2.88984 6.82734 1.125 9 1.125ZM13.5 12.375C15.3598 12.375 16.875 13.8902 16.875 15.75V16.875H1.125V15.75C1.125 13.8902 2.64023 12.375 4.5 12.375C7.48828 12.375 6.86602 12.9375 9 12.9375C11.141 12.9375 10.5082 12.375 13.5 12.375ZM9 0C6.20508 0 3.9375 2.26758 3.9375 5.0625C3.9375 7.85742 6.20508 10.125 9 10.125C11.7949 10.125 14.0625 7.85742 14.0625 5.0625C14.0625 2.26758 11.7949 0 9 0ZM13.5 11.25C10.2516 11.25 11.0039 11.8125 9 11.8125C7.00313 11.8125 7.74492 11.25 4.5 11.25C2.01445 11.25 0 13.2645 0 15.75V16.875C0 17.4973 0.502734 18 1.125 18H16.875C17.4973 18 18 17.4973 18 16.875V15.75C18 13.2645 15.9855 11.25 13.5 11.25Z" fill="#244B81"/>
</svg>
