<svg width="138" height="60" viewBox="0 0 138 60" fill="none" xmlns="http://www.w3.org/2000/svg">
<path fill-rule="evenodd" clip-rule="evenodd" d="M-348.05 30C-349.892 30 -354.392 31.0844 -361.467 39.5914L-384.533 20.4086C-374.974 8.91562 -362.841 0 -348.05 0C-333.259 0 -321.125 8.91562 -311.567 20.4086C-304.492 28.9156 -299.992 30 -298.15 30C-296.308 30 -291.808 28.9156 -284.733 20.4086C-275.174 8.91562 -263.041 0 -248.25 0C-233.459 0 -221.326 8.91562 -211.767 20.4086C-204.692 28.9156 -200.192 30 -198.35 30C-196.508 30 -192.008 28.9156 -184.933 20.4086C-175.374 8.91562 -163.241 0 -148.45 0C-133.659 0 -121.525 8.91562 -111.967 20.4086C-104.892 28.9156 -100.392 30 -98.5499 30C-96.708 30 -92.2077 28.9156 -85.1327 20.4086C-75.5744 8.91562 -63.4413 0 -48.6499 0C-33.8585 0 -21.7255 8.91562 -12.1672 20.4086C-5.09213 28.9156 -0.591827 30 1.25006 30C3.09198 30 7.59229 28.9156 14.6673 20.4086C24.2256 8.91562 36.3586 0 51.1501 0C65.9415 0 78.0745 8.91562 87.6328 20.4086C94.7079 28.9156 99.2082 30 101.05 30C102.892 30 107.392 28.9156 114.467 20.4086L137.533 39.5914C127.975 51.0844 115.841 60 101.05 60C86.2586 60 74.1256 51.0844 64.5673 39.5914C57.4923 31.0844 52.992 30 51.1501 30C49.3082 30 44.8079 31.0844 37.7328 39.5914C28.1745 51.0844 16.0415 60 1.25006 60C-13.5414 60 -25.6744 51.0844 -35.2327 39.5914C-42.3077 31.0844 -46.808 30 -48.6499 30C-50.4919 30 -54.9922 31.0844 -62.0672 39.5914C-71.6255 51.0844 -83.7585 60 -98.5499 60C-113.341 60 -125.474 51.0844 -135.033 39.5914C-142.108 31.0844 -146.608 30 -148.45 30C-150.292 30 -154.792 31.0844 -161.867 39.5914C-171.425 51.0844 -183.559 60 -198.35 60C-213.141 60 -225.274 51.0844 -234.833 39.5914C-241.908 31.0844 -246.408 30 -248.25 30C-250.092 30 -254.592 31.0844 -261.667 39.5914C-271.225 51.0844 -283.359 60 -298.15 60C-312.941 60 -325.074 51.0844 -334.633 39.5914C-341.708 31.0844 -346.208 30 -348.05 30Z" fill="#E7B271" fill-opacity="0.2"/>
</svg>
