<svg width="185" height="60" viewBox="0 0 185 60" fill="none" xmlns="http://www.w3.org/2000/svg">
<path fill-rule="evenodd" clip-rule="evenodd" d="M36.9501 30C35.1081 30 30.6078 31.0844 23.5328 39.5914L0.467285 20.4086C10.0256 8.91562 22.1586 0 36.9501 0C51.7415 0 63.8745 8.91562 73.4328 20.4086C80.5078 28.9156 85.0081 30 86.8501 30C88.692 30 93.1923 28.9156 100.267 20.4086C109.826 8.91562 121.959 0 136.75 0C151.541 0 163.674 8.91562 173.233 20.4086C180.308 28.9156 184.808 30 186.65 30C188.492 30 192.992 28.9156 200.067 20.4086C209.626 8.91562 221.759 0 236.55 0C251.341 0 263.475 8.91562 273.033 20.4086C280.108 28.9156 284.608 30 286.45 30C288.292 30 292.792 28.9156 299.867 20.4086C309.426 8.91562 321.559 0 336.35 0C351.141 0 363.275 8.91562 372.833 20.4086C379.908 28.9156 384.408 30 386.25 30C388.092 30 392.592 28.9156 399.667 20.4086C409.226 8.91562 421.359 0 436.15 0C450.941 0 463.075 8.91562 472.633 20.4086C479.708 28.9156 484.208 30 486.05 30C487.892 30 492.392 28.9156 499.467 20.4086L522.533 39.5914C512.975 51.0844 500.841 60 486.05 60C471.259 60 459.126 51.0844 449.567 39.5914C442.492 31.0844 437.992 30 436.15 30C434.308 30 429.808 31.0844 422.733 39.5914C413.175 51.0844 401.042 60 386.25 60C371.459 60 359.326 51.0844 349.767 39.5914C342.692 31.0844 338.192 30 336.35 30C334.508 30 330.008 31.0844 322.933 39.5914C313.375 51.0844 301.241 60 286.45 60C271.659 60 259.526 51.0844 249.967 39.5914C242.892 31.0844 238.392 30 236.55 30C234.708 30 230.208 31.0844 223.133 39.5914C213.575 51.0844 201.441 60 186.65 60C171.859 60 159.726 51.0844 150.167 39.5914C143.092 31.0844 138.592 30 136.75 30C134.908 30 130.408 31.0844 123.333 39.5914C113.775 51.0844 101.641 60 86.8501 60C72.0586 60 59.9256 51.0844 50.3673 39.5914C43.2923 31.0844 38.792 30 36.9501 30Z" fill="#E7B271" fill-opacity="0.15"/>
</svg>
