<svg width="39" height="39" viewBox="0 0 39 39" fill="none" xmlns="http://www.w3.org/2000/svg">
<path d="M19.6894 38.2381C30.2485 38.2381 38.8084 29.6782 38.8084 19.1191C38.8084 8.55989 30.2485 0 19.6894 0C9.1302 0 0.570312 8.55989 0.570312 19.1191C0.570312 29.6782 9.1302 38.2381 19.6894 38.2381Z" fill="#ACD91A"/>
<path d="M7.88306 16.9231C7.88256 17.1184 7.92068 17.312 7.99522 17.4926C8.06975 17.6732 8.17924 17.8373 8.31739 17.9754C8.45554 18.1136 8.61962 18.223 8.80022 18.2976C8.98081 18.3721 9.17436 18.4102 9.36973 18.4097H9.84139C10.2222 18.3905 10.5811 18.2257 10.8439 17.9494C11.1067 17.673 11.2532 17.3063 11.2532 16.925C11.2532 16.5436 11.1067 16.1769 10.8439 15.9006C10.5811 15.6242 10.2222 15.4594 9.84139 15.4402H9.36973C9.17468 15.4397 8.98144 15.4777 8.80109 15.552C8.62074 15.6263 8.45682 15.7354 8.31872 15.8732C8.18062 16.0109 8.07106 16.1746 7.9963 16.3547C7.92154 16.5349 7.88306 16.728 7.88306 16.9231Z" fill="#495C0B"/>
<path d="M28.0474 16.923C28.0469 17.1181 28.0849 17.3113 28.1592 17.4916C28.2335 17.672 28.3426 17.8359 28.4804 17.974C28.6181 18.1121 28.7818 18.2217 28.9619 18.2964C29.1421 18.3712 29.3352 18.4097 29.5303 18.4097H30.0019C30.2032 18.4198 30.4045 18.3889 30.5934 18.3189C30.7824 18.2489 30.9552 18.1411 31.1012 18.0023C31.2473 17.8634 31.3635 17.6963 31.443 17.5111C31.5225 17.3259 31.5635 17.1264 31.5635 16.9249C31.5635 16.7234 31.5225 16.5239 31.443 16.3387C31.3635 16.1535 31.2473 15.9864 31.1012 15.8475C30.9552 15.7086 30.7824 15.6009 30.5934 15.5309C30.4045 15.4608 30.2032 15.43 30.0019 15.4401H29.5567C29.3597 15.4366 29.1641 15.4724 28.9811 15.5453C28.7981 15.6183 28.6315 15.7269 28.491 15.865C28.3505 16.003 28.2389 16.1677 28.1627 16.3494C28.0866 16.531 28.0473 16.726 28.0474 16.923Z" fill="#495C0B"/>
<path d="M19.7009 27.454C15.5504 27.454 13.3091 23.643 13.2147 23.4808C13.0891 23.2641 13.0548 23.0064 13.1192 22.7644C13.1835 22.5224 13.3414 22.3159 13.5581 22.1903C13.7747 22.0647 14.0324 22.0303 14.2744 22.0947C14.5164 22.1591 14.723 22.317 14.8485 22.5337C14.8787 22.5903 16.6748 25.5523 19.6934 25.5523C20.6856 25.5803 21.6648 25.322 22.514 24.808C23.3632 24.2941 24.0463 23.5464 24.4816 22.6544C24.5777 22.4233 24.7617 22.2397 24.993 22.1442C25.2244 22.0487 25.4843 22.049 25.7155 22.145C25.9466 22.2411 26.1302 22.4251 26.2257 22.6565C26.3212 22.8879 26.3209 23.1477 26.2249 23.3789C25.6498 24.6177 24.7269 25.6625 23.5686 26.3861C22.4102 27.1096 21.0664 27.4807 19.7009 27.454Z" fill="#495C0B"/>
</svg>
