<svg width="39" height="39" viewBox="0 0 39 39" fill="none" xmlns="http://www.w3.org/2000/svg">
<path d="M19.4982 38.2381C30.0574 38.2381 38.6172 29.6782 38.6172 19.1191C38.6172 8.55989 30.0574 0 19.4982 0C8.93903 0 0.37915 8.55989 0.37915 19.1191C0.37915 29.6782 8.93903 38.2381 19.4982 38.2381Z" fill="#FFCE2B"/>
<path d="M7.69166 16.8287C7.69116 17.0241 7.72926 17.2176 7.8038 17.3982C7.87833 17.5788 7.98783 17.7429 8.12598 17.881C8.26413 18.0192 8.42821 18.1287 8.6088 18.2032C8.7894 18.2777 8.98294 18.3159 9.17831 18.3154H9.64996C10.0442 18.3154 10.4224 18.1587 10.7012 17.8799C10.98 17.6011 11.1366 17.223 11.1366 16.8287C11.1366 16.4344 10.98 16.0563 10.7012 15.7775C10.4224 15.4987 10.0442 15.342 9.64996 15.342H9.17831C8.78403 15.342 8.40588 15.4987 8.12708 15.7775C7.84828 16.0563 7.69166 16.4344 7.69166 16.8287Z" fill="#594208"/>
<path d="M27.8672 16.8287C27.8667 17.0241 27.9048 17.2176 27.9793 17.3982C28.0539 17.5788 28.1634 17.7429 28.3015 17.881C28.4397 18.0192 28.6037 18.1287 28.7843 18.2032C28.9649 18.2777 29.1585 18.3159 29.3538 18.3154H29.8255C30.2198 18.3154 30.5979 18.1587 30.8767 17.8799C31.1555 17.6011 31.3121 17.223 31.3121 16.8287C31.3121 16.4344 31.1555 16.0563 30.8767 15.7775C30.5979 15.4987 30.2198 15.342 29.8255 15.342H29.3538C28.9596 15.342 28.5814 15.4987 28.3026 15.7775C28.0238 16.0563 27.8672 16.4344 27.8672 16.8287Z" fill="#594208"/>
<path d="M22.0527 25.7033C21.9405 25.7034 21.8292 25.6829 21.7244 25.6429L14.7854 23.062C14.5507 22.9749 14.3603 22.7982 14.2559 22.5707C14.1515 22.3432 14.1418 22.0836 14.2289 21.8489C14.3159 21.6142 14.4926 21.4237 14.7201 21.3194C14.9476 21.215 15.2073 21.2053 15.442 21.2923L22.3809 23.877C22.5874 23.9547 22.7602 24.1022 22.8691 24.294C22.9781 24.4858 23.0164 24.7097 22.9773 24.9268C22.9383 25.144 22.8244 25.3405 22.6555 25.4824C22.4866 25.6242 22.2733 25.7024 22.0527 25.7033Z" fill="#594208"/>
</svg>
