<svg width="39" height="39" viewBox="0 0 39 39" fill="none" xmlns="http://www.w3.org/2000/svg">
<path d="M19.1191 38.2381C29.6782 38.2381 38.2381 29.6782 38.2381 19.1191C38.2381 8.55989 29.6782 0 19.1191 0C8.55989 0 0 8.55989 0 19.1191C0 29.6782 8.55989 38.2381 19.1191 38.2381Z" fill="#E8354D"/>
<path d="M7.30859 16.923C7.30859 17.3173 7.46523 17.6954 7.74403 17.9742C8.02283 18.253 8.40097 18.4097 8.79526 18.4097H9.26691C9.46819 18.4198 9.66944 18.3889 9.85841 18.3189C10.0474 18.2489 10.2201 18.1411 10.3662 18.0023C10.5123 17.8634 10.6285 17.6963 10.708 17.5111C10.7875 17.3259 10.8284 17.1264 10.8284 16.9249C10.8284 16.7234 10.7875 16.5239 10.708 16.3387C10.6285 16.1535 10.5123 15.9864 10.3662 15.8475C10.2201 15.7086 10.0474 15.6009 9.85841 15.5309C9.66944 15.4608 9.46819 15.43 9.26691 15.4401H8.79526C8.40162 15.4401 8.02405 15.5962 7.74536 15.8742C7.46666 16.1522 7.30959 16.5294 7.30859 16.923Z" fill="#701A25"/>
<path d="M7.49746 13.6516C7.22578 14.1459 7.2522 14.6855 7.5616 14.8553L10.8896 16.6891C11.199 16.8589 11.6707 16.5985 11.9423 16.1042C12.214 15.61 12.1838 15.0704 11.8782 14.9006L8.55397 13.0668C8.24079 12.897 7.76913 13.1573 7.49746 13.6516Z" fill="#701A25"/>
<path d="M30.4805 13.6516C30.7559 14.1459 30.7257 14.6855 30.4163 14.8553L27.0883 16.6891C26.7789 16.8589 26.3073 16.5985 26.0356 16.1042C25.7639 15.61 25.7941 15.0704 26.1035 14.9006L29.4315 13.0668C29.7372 12.897 30.2088 13.1573 30.4805 13.6516Z" fill="#701A25"/>
<path d="M27.4844 16.923C27.4839 17.1184 27.522 17.3119 27.5965 17.4925C27.6711 17.6731 27.7806 17.8372 27.9187 17.9753C28.0569 18.1135 28.2209 18.223 28.4015 18.2975C28.5821 18.3721 28.7757 18.4102 28.971 18.4097H29.4427C29.644 18.4198 29.8452 18.3889 30.0342 18.3189C30.2232 18.2489 30.3959 18.1411 30.542 18.0023C30.688 17.8634 30.8043 17.6963 30.8838 17.5111C30.9633 17.3259 31.0042 17.1264 31.0042 16.9249C31.0042 16.7234 30.9633 16.5239 30.8838 16.3387C30.8043 16.1535 30.688 15.9864 30.542 15.8475C30.3959 15.7086 30.2232 15.6009 30.0342 15.5309C29.8452 15.4608 29.644 15.43 29.4427 15.4401H28.971C28.776 15.4396 28.5828 15.4776 28.4024 15.5519C28.2221 15.6262 28.0581 15.7354 27.92 15.8731C27.7819 16.0109 27.6724 16.1745 27.5976 16.3547C27.5229 16.5348 27.4844 16.728 27.4844 16.923Z" fill="#701A25"/>
<path d="M24.7788 26.5032C24.5913 26.5038 24.4079 26.4484 24.2519 26.3443C24.096 26.2401 23.9747 26.0918 23.9034 25.9183C23.4734 25.024 22.7941 24.273 21.9473 23.7555C21.1005 23.2381 20.1223 22.9763 19.1303 23.0016C16.0852 23.0016 14.2892 26.0202 14.2741 26.0202C14.2119 26.1275 14.1292 26.2215 14.0307 26.2968C13.9322 26.3721 13.8198 26.4273 13.7 26.4592C13.5801 26.491 13.4552 26.499 13.3323 26.4826C13.2094 26.4662 13.0909 26.4258 12.9836 26.3636C12.8764 26.3014 12.7824 26.2187 12.7071 26.1202C12.6317 26.0217 12.5766 25.9093 12.5447 25.7895C12.5128 25.6696 12.5048 25.5447 12.5212 25.4218C12.5376 25.2989 12.5781 25.1804 12.6403 25.0731C12.7346 24.9109 14.9835 21.1074 19.1152 21.0999C20.4839 21.0715 21.8312 21.443 22.992 22.1688C24.1528 22.8946 25.0767 23.9433 25.6504 25.1863C25.7479 25.4167 25.7506 25.6761 25.6581 25.9085C25.5656 26.1408 25.3852 26.3274 25.1561 26.4277C25.0364 26.477 24.9083 26.5026 24.7788 26.5032Z" fill="#701A25"/>
</svg>
