<svg width="39" height="39" viewBox="0 0 39 39" fill="none" xmlns="http://www.w3.org/2000/svg">
<path d="M19.3066 38.2381C29.8657 38.2381 38.4256 29.6782 38.4256 19.1191C38.4256 8.55989 29.8657 0 19.3066 0C8.74739 0 0.1875 8.55989 0.1875 19.1191C0.1875 29.6782 8.74739 38.2381 19.3066 38.2381Z" fill="#FC7E1E"/>
<path d="M7.79834 16.923C7.79785 17.1181 7.83584 17.3113 7.91014 17.4916C7.98444 17.672 8.0936 17.8359 8.23135 17.974C8.3691 18.1121 8.53274 18.2217 8.7129 18.2964C8.89306 18.3712 9.08619 18.4097 9.28125 18.4097H9.7529C9.95418 18.4198 10.1554 18.3889 10.3444 18.3189C10.5334 18.2489 10.7061 18.1411 10.8522 18.0023C10.9982 17.8634 11.1145 17.6963 11.194 17.5111C11.2735 17.3259 11.3144 17.1264 11.3144 16.9249C11.3144 16.7234 11.2735 16.5239 11.194 16.3387C11.1145 16.1535 10.9982 15.9864 10.8522 15.8475C10.7061 15.7086 10.5334 15.6009 10.3444 15.5309C10.1554 15.4608 9.95418 15.43 9.7529 15.4401H9.26615C8.87548 15.4441 8.50217 15.6021 8.22733 15.8797C7.95249 16.1574 7.79832 16.5323 7.79834 16.923Z" fill="#63320A"/>
<path d="M27.9702 16.923C27.9702 17.3173 28.1268 17.6954 28.4056 17.9742C28.6844 18.253 29.0626 18.4097 29.4569 18.4097H29.9285C30.1298 18.4198 30.3311 18.3889 30.52 18.3189C30.709 18.2489 30.8818 18.1411 31.0278 18.0023C31.1739 17.8634 31.2902 17.6963 31.3696 17.5111C31.4491 17.3259 31.4901 17.1264 31.4901 16.9249C31.4901 16.7234 31.4491 16.5239 31.3696 16.3387C31.2902 16.1535 31.1739 15.9864 31.0278 15.8475C30.8818 15.7086 30.709 15.6009 30.52 15.5309C30.3311 15.4608 30.1298 15.43 29.9285 15.4401H29.4569C29.0632 15.4401 28.6857 15.5962 28.407 15.8742C28.1283 16.1522 27.9712 16.5294 27.9702 16.923Z" fill="#63320A"/>
<path d="M24.9705 26.5032C24.7835 26.5035 24.6006 26.448 24.4454 26.3438C24.2901 26.2397 24.1694 26.0915 24.0988 25.9183C23.667 25.0246 22.9868 24.2742 22.1396 23.7569C21.2925 23.2397 20.3142 22.9774 19.3219 23.0016C16.2807 23.0016 14.4846 26.0202 14.4657 26.0202C14.3401 26.2369 14.1336 26.3948 13.8916 26.4592C13.6496 26.5236 13.3919 26.4892 13.1753 26.3636C12.9586 26.238 12.8007 26.0315 12.7363 25.7895C12.6719 25.5475 12.7063 25.2898 12.8319 25.0731C12.9263 24.9109 15.1789 21.1074 19.3068 21.0999C20.6756 21.0715 22.0229 21.443 23.1837 22.1688C24.3445 22.8946 25.2683 23.9433 25.8421 25.1863C25.8896 25.301 25.914 25.424 25.914 25.5481C25.9139 25.6723 25.8893 25.7952 25.8416 25.9098C25.794 26.0244 25.7241 26.1285 25.6362 26.2161C25.5482 26.3037 25.4438 26.373 25.3289 26.4202C25.2157 26.47 25.0941 26.4982 24.9705 26.5032Z" fill="#63320A"/>
</svg>
