<svg width="39" height="39" viewBox="0 0 39 39" fill="none" xmlns="http://www.w3.org/2000/svg">
<path d="M19.881 38.2381C30.4402 38.2381 39.0001 29.6782 39.0001 19.1191C39.0001 8.55989 30.4402 0 19.881 0C9.32187 0 0.761963 8.55989 0.761963 19.1191C0.761963 29.6782 9.32187 38.2381 19.881 38.2381Z" fill="#4ECC58"/>
<path d="M8.07447 16.923C8.07397 17.1181 8.11196 17.3113 8.18626 17.4916C8.26056 17.672 8.36971 17.8359 8.50746 17.974C8.64521 18.1121 8.80886 18.2217 8.98902 18.2964C9.16918 18.3712 9.36231 18.4097 9.55736 18.4097H10.029C10.2303 18.4198 10.4316 18.3889 10.6205 18.3189C10.8095 18.2489 10.9823 18.1411 11.1283 18.0023C11.2744 17.8634 11.3907 17.6963 11.4701 17.5111C11.5496 17.3259 11.5906 17.1264 11.5906 16.9249C11.5906 16.7234 11.5496 16.5239 11.4701 16.3387C11.3907 16.1535 11.2744 15.9864 11.1283 15.8475C10.9823 15.7086 10.8095 15.6009 10.6205 15.5309C10.4316 15.4608 10.2303 15.43 10.029 15.4401H9.55736C9.16407 15.4401 8.78689 15.5963 8.50879 15.8744C8.2307 16.1525 8.07447 16.5297 8.07447 16.923Z" fill="#1F5223"/>
<path d="M28.2461 16.923C28.2461 17.1182 28.2846 17.3116 28.3593 17.4919C28.434 17.6723 28.5435 17.8362 28.6815 17.9742C28.8196 18.1123 28.9835 18.2218 29.1638 18.2965C29.3442 18.3712 29.5375 18.4097 29.7328 18.4097H30.2044C30.4057 18.4198 30.6069 18.3889 30.7959 18.3189C30.9849 18.2489 31.1576 18.1411 31.3037 18.0023C31.4497 17.8634 31.566 17.6963 31.6455 17.5111C31.725 17.3259 31.7659 17.1264 31.7659 16.9249C31.7659 16.7234 31.725 16.5239 31.6455 16.3387C31.566 16.1535 31.4497 15.9864 31.3037 15.8475C31.1576 15.7086 30.9849 15.6009 30.7959 15.5309C30.6069 15.4608 30.4057 15.43 30.2044 15.4401H29.7328C29.3391 15.4401 28.9616 15.5962 28.6829 15.8742C28.4042 16.1522 28.2471 16.5294 28.2461 16.923Z" fill="#1F5223"/>
<path d="M12.6138 21.4509C12.6138 21.4509 15.2135 27.4881 19.881 27.5145C25.2957 27.5145 27.1521 21.4509 27.1521 21.4509H12.6138Z" fill="#1F5223"/>
</svg>
